<?xml version="1.0" encoding="UTF-8"?><svg id="Layer_1" xmlns="http://www.w3.org/2000/svg" viewBox="0 0 523.25 302.32"><defs><style>.cls-1{fill:#231f20;}</style></defs><path class="cls-1" d="M187.07,174.82c0,10.45-6.87,16.71-18.58,16.71h-12.54v21.86h-6.34v-55.22h18.95c11.64,0,18.5,6.19,18.5,16.64ZM180.5,174.82c0-7.16-4.25-11.42-11.57-11.42h-12.98v22.91h12.91c7.31,0,11.64-4.33,11.64-11.49Z"/><path class="cls-1" d="M228.47,208.02v5.37h-31.79v-55.22h6.34v49.84h25.44Z"/><path class="cls-1" d="M273.39,208.17v5.22h-36.34v-55.22h35.52v5.22h-29.17v18.88h26.56v5.22h-26.56v20.67h30Z"/><path class="cls-1" d="M323.82,213.39h-7.98l-15-28.43h-.15l-15.07,28.43h-7.98l16.19-28.8-14.4-26.41h7.39l13.88,26.19h.15l13.8-26.19h7.46l-14.48,26.41,16.19,28.8Z"/><path class="cls-1" d="M327.18,185.79c0-17.83,8.95-28.35,23.95-28.35s23.95,10.52,23.95,28.35-8.88,28.35-23.95,28.35-23.95-10.52-23.95-28.35ZM368.51,185.79c0-14.4-6.49-22.91-17.39-22.91s-17.31,8.51-17.31,22.91,6.34,22.91,17.31,22.91,17.39-8.51,17.39-22.91Z"/><path class="cls-1" d="M382.31,194.51h6.34c.6,8.95,6.12,14.18,15,14.18,9.33,0,14.77-3.88,14.77-10.59,0-8.21-7.68-9.4-15.74-10.75-9.1-1.42-18.88-2.98-18.88-14.33,0-10,7.39-15.59,19.77-15.59s19.18,7.01,19.85,18.8h-6.34c-.45-8.43-5.52-13.36-13.73-13.36s-13.06,3.58-13.06,9.77c0,7.09,7.01,8.21,14.7,9.4,9.4,1.49,20,3.13,20,15.59,0,10.37-7.98,16.49-21.41,16.49-12.61,0-20.52-7.24-21.27-19.62Z"/><path class="cls-1" d="M149.61,225.76h6.34v55.22h-6.34v-55.22Z"/><path class="cls-1" d="M210.79,225.76v55.22h-11.19l-23.35-54.62h-.15l.22,54.62h-6.19v-55.22h11.34l23.28,54.62h.15l-.15-54.62h6.04Z"/><path class="cls-1" d="M221.16,262.1h6.34c.6,8.95,6.12,14.18,15,14.18,9.33,0,14.77-3.88,14.77-10.59,0-8.21-7.69-9.4-15.74-10.75-9.1-1.42-18.88-2.98-18.88-14.33,0-10,7.39-15.59,19.77-15.59s19.18,7.01,19.85,18.8h-6.34c-.45-8.43-5.52-13.36-13.73-13.36s-13.06,3.58-13.06,9.77c0,7.09,7.01,8.21,14.7,9.4,9.4,1.49,20,3.13,20,15.59,0,10.37-7.98,16.49-21.41,16.49-12.61,0-20.52-7.24-21.27-19.62Z"/><path class="cls-1" d="M307.86,230.99h-17.01v49.99h-6.42v-49.99h-17.01v-5.22h40.44v5.22Z"/><path class="cls-1" d="M316.36,225.76h6.34v55.22h-6.34v-55.22Z"/><path class="cls-1" d="M371.65,230.99h-17.01v49.99h-6.42v-49.99h-17.01v-5.22h40.44v5.22Z"/><path class="cls-1" d="M413.87,225.76h6.04v36.19c0,12.39-7.54,19.77-20.22,19.77s-20.15-7.39-20.15-19.77v-36.19h6.42v36.64c0,8.73,5.15,13.88,13.88,13.88s14.03-5.15,14.03-13.88v-36.64Z"/><path class="cls-1" d="M468.26,230.99h-17.01v49.99h-6.42v-49.99h-17.01v-5.22h40.44v5.22Z"/><path class="cls-1" d="M513.1,275.76v5.22h-36.34v-55.22h35.52v5.22h-29.17v18.88h26.56v5.22h-26.56v20.67h30Z"/><path class="cls-1" d="M100.94,14.21v-.47h-7.39l-38.08,65.62L17.39,13.75h-7.39v131.97h7.39l38.09-65.63,38.07,65.63h42.74v-65.87L100.94,14.21ZM129.95,81.8v52.15l-29.01-53.86V27.54l29.01,54.26ZM94.59,24.6v52.13h-30.45l30.45-52.13ZM46.79,76.73h-30.45V24.6l30.45,52.13ZM16.34,134.86v-51.9h30.32l-30.32,51.9ZM97.3,139.49l-33.02-56.54h31.07l30.23,56.54h-28.28Z"/></svg>
